<?xml version="1.0" encoding="UTF-8"?>
<!DOCTYPE svg PUBLIC "-//W3C//DTD SVG 1.1//EN" "http://www.w3.org/Graphics/SVG/1.1/DTD/svg11.dtd">
<!-- Creator: CorelDRAW X5 -->
<svg xmlns="http://www.w3.org/2000/svg" xml:space="preserve" width="2362px" height="2953px" style="shape-rendering:geometricPrecision; text-rendering:geometricPrecision; image-rendering:optimizeQuality; fill-rule:evenodd; clip-rule:evenodd"
viewBox="0 0 2362 2952.5"
 xmlns:xlink="http://www.w3.org/1999/xlink">
 <defs>
  <style type="text/css">
   <![CDATA[
    .str3 {stroke:#332C2B;stroke-width:5.905}
    .str5 {stroke:#474443;stroke-width:5.905}
    .str4 {stroke:#F08519;stroke-width:5.905}
    .str2 {stroke:#332C2B;stroke-width:6.39748}
    .str1 {stroke:#F08519;stroke-width:6.39748}
    .str0 {stroke:#F08519;stroke-width:14.7625}
    .fil1 {fill:none}
    .fil3 {fill:#00A2E9}
    .fil2 {fill:#7C6FB0}
    .fil4 {fill:#9288B1}
    .fil0 {fill:#FFF000}
    .fil6 {fill:#332C2B;fill-rule:nonzero}
    .fil7 {fill:#474443;fill-rule:nonzero}
    .fil5 {fill:black;fill-opacity:0.000000}
   ]]>
  </style>
   <clipPath id="id0">
    <path d="M2005.75 905.083l121.434 0 0 -142.764 -121.434 0 0 142.764z"/>
   </clipPath>
   <clipPath id="id1">
    <path d="M2005.75 905.083l121.434 0 0 -142.764 -121.434 0 0 142.764z"/>
   </clipPath>
   <clipPath id="id2">
    <path d="M2005.75 905.083l121.434 0 0 -142.764 -121.434 0 0 142.764z"/>
   </clipPath>
   <clipPath id="id3">
    <path d="M2005.75 905.083l121.434 0 0 -142.764 -121.434 0 0 142.764z"/>
   </clipPath>
    <clipPath id="id4">
     <path d="M2005.75 905.083l121.428 0 0 -142.744 -121.428 0 0 142.744z"/>
    </clipPath>
    <clipPath id="id5">
     <path d="M2005.75 905.083l121.434 0 0 -142.764 -121.434 0 0 142.764z"/>
    </clipPath>
   <clipPath id="id6">
    <path d="M2064.94 1293.87l133.276 0 0 -154.602 -133.276 0 0 154.602z"/>
   </clipPath>
   <clipPath id="id7">
    <path d="M2064.94 1293.87l133.276 0 0 -154.602 -133.276 0 0 154.602z"/>
   </clipPath>
   <clipPath id="id8">
    <path d="M2064.94 1293.87l133.276 0 0 -154.602 -133.276 0 0 154.602z"/>
   </clipPath>
   <clipPath id="id9">
    <path d="M2064.94 1293.87l133.276 0 0 -154.602 -133.276 0 0 154.602z"/>
   </clipPath>
    <clipPath id="id10">
     <path d="M2064.94 1293.87l133.262 0 0 -154.591 -133.262 0 0 154.591z"/>
    </clipPath>
    <clipPath id="id11">
     <path d="M2064.94 1293.87l133.276 0 0 -154.602 -133.276 0 0 154.602z"/>
    </clipPath>
   <clipPath id="id12">
    <path d="M2029.18 366.083l121.434 0 0 -142.764 -121.434 0 0 142.764z"/>
   </clipPath>
   <clipPath id="id13">
    <path d="M2029.18 366.083l121.434 0 0 -142.764 -121.434 0 0 142.764z"/>
   </clipPath>
   <clipPath id="id14">
    <path d="M2029.18 366.083l121.434 0 0 -142.764 -121.434 0 0 142.764z"/>
   </clipPath>
   <clipPath id="id15">
    <path d="M2029.18 366.083l121.434 0 0 -142.764 -121.434 0 0 142.764z"/>
   </clipPath>
    <clipPath id="id16">
     <path d="M2029.18 366.083l121.43 0 0 -142.752 -121.43 0 0 142.752z"/>
    </clipPath>
    <clipPath id="id17">
     <path d="M2029.18 366.083l121.434 0 0 -142.764 -121.434 0 0 142.764z"/>
    </clipPath>
   <clipPath id="id18">
    <path d="M334.018 1967.52l121.434 0 0 -142.764 -121.434 0 0 142.764z"/>
   </clipPath>
   <clipPath id="id19">
    <path d="M334.018 1967.52l121.434 0 0 -142.764 -121.434 0 0 142.764z"/>
   </clipPath>
   <clipPath id="id20">
    <path d="M334.018 1967.52l121.434 0 0 -142.764 -121.434 0 0 142.764z"/>
   </clipPath>
   <clipPath id="id21">
    <path d="M334.018 1967.52l121.434 0 0 -142.764 -121.434 0 0 142.764z"/>
   </clipPath>
    <clipPath id="id22">
     <path d="M334.018 1967.52l121.434 0 0 -142.762 -121.434 0 0 142.762z"/>
    </clipPath>
    <clipPath id="id23">
     <path d="M334.018 1967.52l121.434 0 0 -142.764 -121.434 0 0 142.764z"/>
    </clipPath>
   <clipPath id="id24">
    <path d="M168.966 2314.78l183.436 0 0 -186.134 -183.436 0 0 186.134z"/>
   </clipPath>
   <clipPath id="id25">
    <path d="M168.966 2314.78l183.436 0 0 -186.134 -183.436 0 0 186.134z"/>
   </clipPath>
   <clipPath id="id26">
    <path d="M168.966 2314.78l183.436 0 0 -186.134 -183.436 0 0 186.134z"/>
   </clipPath>
   <clipPath id="id27">
    <path d="M168.966 2314.78l183.436 0 0 -186.134 -183.436 0 0 186.134z"/>
   </clipPath>
    <clipPath id="id28">
     <path d="M168.966 2314.78l183.436 0 0 -186.126 -183.436 0 0 186.126z"/>
    </clipPath>
    <clipPath id="id29">
     <path d="M168.966 2314.78l183.436 0 0 -186.134 -183.436 0 0 186.134z"/>
    </clipPath>
   <clipPath id="id30">
    <path d="M2041.88 553.558l143.043 0 0 -145.147 -143.043 0 0 145.147z"/>
   </clipPath>
   <clipPath id="id31">
    <path d="M2041.88 553.558l143.043 0 0 -145.147 -143.043 0 0 145.147z"/>
   </clipPath>
   <clipPath id="id32">
    <path d="M2041.88 553.558l143.043 0 0 -145.147 -143.043 0 0 145.147z"/>
   </clipPath>
   <clipPath id="id33">
    <path d="M2041.88 553.558l143.043 0 0 -145.147 -143.043 0 0 145.147z"/>
   </clipPath>
    <clipPath id="id34">
     <path d="M2184.92 553.547l0 -145.135 -143.039 0 0 145.135 143.039 0z"/>
    </clipPath>
    <clipPath id="id35">
     <path d="M2041.88 553.558l143.043 0 0 -145.147 -143.043 0 0 145.147z"/>
    </clipPath>
   <clipPath id="id36">
    <path d="M1548.02 1709.45l172.904 0 0 -170.565 -172.904 0 0 170.565z"/>
   </clipPath>
   <clipPath id="id37">
    <path d="M1548.02 1709.45l172.904 0 0 -170.565 -172.904 0 0 170.565z"/>
   </clipPath>
   <clipPath id="id38">
    <path d="M1548.02 1709.45l172.904 0 0 -170.565 -172.904 0 0 170.565z"/>
   </clipPath>
   <clipPath id="id39">
    <path d="M1548.02 1709.45l172.904 0 0 -170.565 -172.904 0 0 170.565z"/>
   </clipPath>
    <clipPath id="id40">
     <path d="M1548.02 1538.89l0 170.561 172.889 0 0 -170.561 -172.889 0z"/>
    </clipPath>
    <clipPath id="id41">
     <path d="M1548.02 1709.45l172.904 0 0 -170.565 -172.904 0 0 170.565z"/>
    </clipPath>
   <clipPath id="id42">
    <path d="M1758.91 1706.86l172.904 0 0 -170.565 -172.904 0 0 170.565z"/>
   </clipPath>
   <clipPath id="id43">
    <path d="M1758.91 1706.86l172.904 0 0 -170.565 -172.904 0 0 170.565z"/>
   </clipPath>
   <clipPath id="id44">
    <path d="M1758.91 1706.86l172.904 0 0 -170.565 -172.904 0 0 170.565z"/>
   </clipPath>
   <clipPath id="id45">
    <path d="M1758.91 1706.86l172.904 0 0 -170.565 -172.904 0 0 170.565z"/>
   </clipPath>
    <clipPath id="id46">
     <path d="M1931.82 1706.84l0 -170.553 -172.895 0 0 170.553 172.895 0z"/>
    </clipPath>
    <clipPath id="id47">
     <path d="M1758.91 1706.86l172.904 0 0 -170.565 -172.904 0 0 170.565z"/>
    </clipPath>
   <clipPath id="id48">
    <path d="M870.632 1044.72l211.806 0 0 -184.351 -211.806 0 0 184.351z"/>
   </clipPath>
   <clipPath id="id49">
    <path d="M870.632 1044.72l211.806 0 0 -184.351 -211.806 0 0 184.351z"/>
   </clipPath>
   <clipPath id="id50">
    <path d="M870.632 1044.72l211.806 0 0 -184.351 -211.806 0 0 184.351z"/>
   </clipPath>
   <clipPath id="id51">
    <path d="M870.632 1044.72l211.806 0 0 -184.351 -211.806 0 0 184.351z"/>
   </clipPath>
    <clipPath id="id52">
     <path d="M1082.43 1044.72l0 -184.345 -211.798 0 0 184.345 211.798 0z"/>
    </clipPath>
    <clipPath id="id53">
     <path d="M870.632 1044.72l211.806 0 0 -184.351 -211.806 0 0 184.351z"/>
    </clipPath>
   <clipPath id="id54">
    <path d="M867.113 1273.87l211.806 0 0 -184.351 -211.806 0 0 184.351z"/>
   </clipPath>
   <clipPath id="id55">
    <path d="M867.113 1273.87l211.806 0 0 -184.351 -211.806 0 0 184.351z"/>
   </clipPath>
   <clipPath id="id56">
    <path d="M867.113 1273.87l211.806 0 0 -184.351 -211.806 0 0 184.351z"/>
   </clipPath>
   <clipPath id="id57">
    <path d="M867.113 1273.87l211.806 0 0 -184.351 -211.806 0 0 184.351z"/>
   </clipPath>
    <clipPath id="id58">
     <path d="M1078.92 1089.52l-211.801 0 0 184.347 211.801 0 0 -184.347z"/>
    </clipPath>
    <clipPath id="id59">
     <path d="M867.113 1273.87l211.806 0 0 -184.351 -211.806 0 0 184.351z"/>
    </clipPath>
   <clipPath id="id60">
    <path d="M1307.44 1716.22l175.745 0 0 -180.309 -175.745 0 0 180.309z"/>
   </clipPath>
   <clipPath id="id61">
    <path d="M1307.44 1716.22l175.745 0 0 -180.309 -175.745 0 0 180.309z"/>
   </clipPath>
   <clipPath id="id62">
    <path d="M1307.44 1716.22l175.745 0 0 -180.309 -175.745 0 0 180.309z"/>
   </clipPath>
   <clipPath id="id63">
    <path d="M1307.44 1716.22l175.745 0 0 -180.309 -175.745 0 0 180.309z"/>
   </clipPath>
    <clipPath id="id64">
     <path d="M1483.18 1535.91l-175.733 0 0 180.303 175.733 0 0 -180.303z"/>
    </clipPath>
    <clipPath id="id65">
     <path d="M1307.44 1716.22l175.745 0 0 -180.309 -175.745 0 0 180.309z"/>
    </clipPath>
   <clipPath id="id66">
    <path d="M2023.52 1703.2l175.745 0 0 -180.309 -175.745 0 0 180.309z"/>
   </clipPath>
   <clipPath id="id67">
    <path d="M2023.52 1703.2l175.745 0 0 -180.309 -175.745 0 0 180.309z"/>
   </clipPath>
   <clipPath id="id68">
    <path d="M2023.52 1703.2l175.745 0 0 -180.309 -175.745 0 0 180.309z"/>
   </clipPath>
   <clipPath id="id69">
    <path d="M2023.52 1703.2l175.745 0 0 -180.309 -175.745 0 0 180.309z"/>
   </clipPath>
    <clipPath id="id70">
     <path d="M2023.53 1522.89l0 180.297 175.733 0 0 -180.297 -175.733 0z"/>
    </clipPath>
    <clipPath id="id71">
     <path d="M2023.52 1703.2l175.745 0 0 -180.309 -175.745 0 0 180.309z"/>
    </clipPath>
   <clipPath id="id72">
    <path d="M747.817 2069.63l210.767 0 0 -206.329 -210.767 0 0 206.329z"/>
   </clipPath>
   <clipPath id="id73">
    <path d="M747.817 2069.63l210.767 0 0 -206.329 -210.767 0 0 206.329z"/>
   </clipPath>
   <clipPath id="id74">
    <path d="M747.817 2069.63l210.767 0 0 -206.329 -210.767 0 0 206.329z"/>
   </clipPath>
   <clipPath id="id75">
    <path d="M747.817 2069.63l210.767 0 0 -206.329 -210.767 0 0 206.329z"/>
   </clipPath>
    <clipPath id="id76">
     <path d="M747.817 2069.63l210.765 0 0 -206.309 -210.765 0 0 206.309z"/>
    </clipPath>
    <clipPath id="id77">
     <path d="M747.817 2069.63l210.767 0 0 -206.329 -210.767 0 0 206.329z"/>
    </clipPath>
 </defs>
 <g id="图层_x0020_1">
  <metadata id="CorelCorpID_0Corel-Layer"/>
  <polygon class="fil0 str0" points="508.611,191.491 508.611,1735.35 501.608,2086.54 138.382,2086.54 138.382,2616.38 138.382,2741.38 1292.27,2741.38 1292.27,1722.48 2234.62,1722.48 2235.56,1316.59 1819.77,1316.59 1819.77,1120.2 1820.86,1025.63 1820.86,929.667 1820.86,833.715 1820.86,737.764 2235.56,737.764 2235.56,679.125 2235.25,394.351 1664.94,394.351 1664.94,194.442 "/>
  <line class="fil1 str0" x1="971.956" y1="1316.59" x2="847.145" y2= "1316.59" />
  <line class="fil1 str0" x1="859.261" y1="2616.38" x2="138.382" y2= "2616.38" />
  <polygon class="fil2 str0" points="138.382,191.491 138.382,1735.35 508.611,1735.35 508.611,191.491 "/>
 </g>
 <g id="图层_x0020_1_0">
  <metadata id="CorelCorpID_1Corel-Layer"/>
  <line class="fil1 str0" x1="847.145" y1="1316.59" x2="859.261" y2= "2616.38" />
  <line class="fil1 str1" x1="138.382" y1="2616.38" x2="138.382" y2= "2741.38" />
  <line class="fil1 str0" x1="2235.56" y1="679.125" x2="859.261" y2= "679.125" />
  <line class="fil1 str0" x1="971.956" y1="835.451" x2="971.956" y2= "1316.59" />
  <line class="fil1 str1" x1="138.382" y1="2616.38" x2="138.382" y2= "2086.54" />
  <line class="fil1 str0" x1="138.382" y1="2086.54" x2="138.382" y2= "1735.35" />
  <line class="fil1 str2" x1="501.608" y1="2086.54" x2="138.382" y2= "2086.54" />
  <line class="fil1 str0" x1="508.611" y1="1735.35" x2="138.382" y2= "1735.35" />
  <line class="fil1 str0" x1="138.382" y1="191.491" x2="508.611" y2= "191.491" />
  <line class="fil1 str0" x1="1664.94" y1="194.442" x2="508.611" y2= "191.491" />
  <line class="fil1 str1" x1="2235.25" y1="394.351" x2="2235.56" y2= "679.125" />
  <line class="fil1 str0" x1="1819.77" y1="1120.2" x2="1820.86" y2= "1025.63" />
  <polyline class="fil1 str0" points="1820.86,1025.63 1820.86,929.667 1820.86,833.715 1820.86,737.764 "/>
  <line class="fil1 str0" x1="1820.86" y1="1025.63" x2="2235.56" y2= "1025.63" />
  <line class="fil1 str0" x1="1820.86" y1="929.667" x2="2235.56" y2= "929.667" />
  <line class="fil1 str0" x1="1820.86" y1="833.715" x2="2235.56" y2= "833.715" />
  <line class="fil1 str0" x1="1820.86" y1="737.764" x2="2235.56" y2= "737.764" />
  <polyline class="fil1 str0" points="2235.56,679.125 2235.56,789.777 2235.56,900.465 2235.56,1011.13 2235.56,1120.2 "/>
  <line class="fil1 str2" x1="1292.27" y1="1722.48" x2="2234.62" y2= "1722.48" />
  <line class="fil1 str2" x1="1292.27" y1="1722.48" x2="1292.27" y2= "2741.38" />
  <polyline class="fil1 str3" points="1664.94,394.351 2235.25,394.351 2235.25,194.442 "/>
  <line class="fil1 str3" x1="1664.94" y1="394.351" x2="1664.94" y2= "194.442" />
  <polygon class="fil3 str0" points="1664.94,394.351 2235.25,394.351 2235.25,194.442 1664.94,194.442 "/>
  <polygon class="fil3 str0" points="501.608,2086.54 508.611,1735.35 138.382,1735.35 138.382,2086.54 "/>
  <polygon class="fil3 str4" points="1820.86,833.715 2235.56,833.715 2235.56,789.777 2235.56,737.764 1820.86,737.764 "/>
  <polygon class="fil3 str0" points="1820.86,929.667 2235.56,929.667 2235.56,900.465 2235.56,833.715 1820.86,833.715 "/>
  <polygon class="fil3 str0" points="1820.86,1025.63 2235.56,1025.63 2235.56,1011.13 2235.56,929.667 1820.86,929.667 "/>
  <polygon class="fil3 str0" points="1819.77,1120.2 2235.56,1120.2 2235.56,1025.63 1820.86,1025.63 "/>
  <polygon class="fil3 str0" points="2235.56,1316.59 2235.56,1120.2 1819.77,1120.2 1819.77,1316.59 "/>
  <polygon class="fil4 str0" points="2234.62,1722.48 1292.27,1722.48 1292.27,2741.38 2232.32,2741.38 "/>
 </g>
 <g id="图层_x0020_1_0_1">
  <metadata id="CorelCorpID_2Corel-Layer"/>
  <polyline class="fil1 str0" points="859.26,677.768 859.26,835.451 971.956,835.451 "/>
  <line class="fil1 str0" x1="2232.32" y1="2741.38" x2="137.898" y2= "2741.38" />
  <line class="fil1 str0" x1="138.382" y1="1735.35" x2="138.382" y2= "191.491" />
  <line class="fil1 str0" x1="1664.94" y1="194.442" x2="2235.25" y2= "194.442" />
 </g>
 <g id="楼梯">
  <metadata id="CorelCorpID_3Corel-Layer"/>
  <g style="clip-path:url(#id0)">
   <polygon class="fil5" points="2005.75,762.319 2127.18,762.319 2127.18,905.083 2005.75,905.083 "/>
  </g>
  <g style="clip-path:url(#id1)">
   <g id="_247275960">
    <polygon id="_2472763441" class="fil5" points="2005.75,762.324 2127.18,762.324 2127.18,905.083 2005.75,905.083 "/>
   </g>
  </g>
  <polygon class="fil1" points="2005.75,905.083 2127.18,905.083 2127.18,762.319 2005.75,762.319 "/>
  <g style="clip-path:url(#id2)">
   <polygon class="fil5" points="2005.75,762.319 2127.18,762.319 2127.18,905.083 2005.75,905.083 "/>
  </g>
  <g style="clip-path:url(#id3)">
   <g id="_247276464">
   </g>
   <g style="clip-path:url(#id4)">
    <image id="对象_x0020_1" transform="matrix(1 0 0 1 824.753 -571.139)" x="1181" y="1333.48" width="121.433" height="142.765" xlink:href="escalator.png"/>
   </g>
   <g style="clip-path:url(#id5)">
   </g>
  </g>
  <polygon class="fil1" points="2005.75,905.083 2127.18,905.083 2127.18,762.319 2005.75,762.319 "/>
  <polygon class="fil1" points="2005.75,905.083 2127.18,905.083 2127.18,762.324 2005.75,762.324 "/>
  <g style="clip-path:url(#id6)">
   <polygon class="fil5" points="2064.94,1139.27 2198.22,1139.27 2198.22,1293.87 2064.94,1293.87 "/>
  </g>
  <g style="clip-path:url(#id7)">
   <g id="_247912736">
    <polygon id="_2479136961" class="fil5" points="2064.94,1139.27 2198.22,1139.27 2198.22,1293.87 2064.94,1293.87 "/>
   </g>
  </g>
  <polygon class="fil1" points="2064.94,1293.87 2198.22,1293.87 2198.22,1139.27 2064.94,1139.27 "/>
  <g style="clip-path:url(#id8)">
   <polygon class="fil5" points="2064.94,1139.27 2198.22,1139.27 2198.22,1293.87 2064.94,1293.87 "/>
  </g>
  <g style="clip-path:url(#id9)">
   <g id="_247913672">
   </g>
   <g style="clip-path:url(#id10)">
    <image id="对象_x0020_1_2" transform="matrix(1 0 0 1 883.929 -182.371)" x="1181" y="1321.65" width="133.276" height="154.602" xlink:href="stairs.png"/>
   </g>
   <g style="clip-path:url(#id11)">
   </g>
  </g>
  <polygon class="fil1" points="2064.94,1293.87 2198.22,1293.87 2198.22,1139.27 2064.94,1139.27 "/>
  <polygon class="fil1" points="2064.94,1293.87 2198.22,1293.87 2198.22,1139.27 2064.94,1139.27 "/>
  <g style="clip-path:url(#id12)">
   <polygon class="fil5" points="2029.18,223.319 2150.62,223.319 2150.62,366.083 2029.18,366.083 "/>
  </g>
  <g style="clip-path:url(#id13)">
   <g id="_247915472">
    <polygon id="_2479162401" class="fil5" points="2029.18,223.313 2150.62,223.313 2150.62,366.083 2029.18,366.083 "/>
   </g>
  </g>
  <polygon class="fil1" points="2029.18,366.083 2150.62,366.083 2150.62,223.319 2029.18,223.319 "/>
  <g style="clip-path:url(#id14)">
   <polygon class="fil5" points="2029.18,223.319 2150.62,223.319 2150.62,366.083 2029.18,366.083 "/>
  </g>
  <g style="clip-path:url(#id15)">
   <g id="_247916504">
   </g>
   <g style="clip-path:url(#id16)">
    <image id="对象_x0020_1_3" transform="matrix(1 0 0 1 848.186 -1110.16)" x="1181" y="1333.49" width="121.434" height="142.764" xlink:href="escalator.png"/>
   </g>
   <g style="clip-path:url(#id17)">
   </g>
  </g>
  <polygon class="fil1" points="2029.18,366.083 2150.62,366.083 2150.62,223.319 2029.18,223.319 "/>
  <polygon class="fil1" points="2029.18,366.083 2150.62,366.083 2150.62,223.313 2029.18,223.313 "/>
  <g style="clip-path:url(#id18)">
   <polygon class="fil5" points="334.018,1824.75 455.451,1824.75 455.451,1967.52 334.018,1967.52 "/>
  </g>
  <g style="clip-path:url(#id19)">
   <g id="_247919120">
    <polygon id="_2479198881" class="fil5" points="334.018,1824.75 455.451,1824.75 455.451,1967.52 334.018,1967.52 "/>
   </g>
  </g>
  <polygon class="fil1" points="334.018,1967.52 455.451,1967.52 455.451,1824.75 334.018,1824.75 "/>
  <g style="clip-path:url(#id20)">
   <polygon class="fil5" points="334.018,1824.75 455.451,1824.75 455.451,1967.52 334.018,1967.52 "/>
  </g>
  <g style="clip-path:url(#id21)">
   <g id="_247920464">
   </g>
   <g style="clip-path:url(#id22)">
    <image id="对象_x0020_1_4" transform="matrix(1 0 0 1 -846.982 491.27)" x="1181" y="1333.48" width="121.434" height="142.765" xlink:href="escalator.png"/>
   </g>
   <g style="clip-path:url(#id23)">
   </g>
  </g>
  <polygon class="fil1" points="334.018,1967.52 455.451,1967.52 455.451,1824.75 334.018,1824.75 "/>
  <polygon class="fil1" points="334.018,1967.52 455.451,1967.52 455.451,1824.75 334.018,1824.75 "/>
 </g>
 <g id="交通">
  <metadata id="CorelCorpID_4Corel-Layer"/>
  <g style="clip-path:url(#id24)">
   <polygon class="fil5" points="168.966,2128.65 352.402,2128.65 352.402,2314.78 168.966,2314.78 "/>
  </g>
  <g style="clip-path:url(#id25)">
   <g id="_247924304">
    <polygon id="_2479245681" class="fil5" points="168.966,2128.65 352.402,2128.65 352.402,2314.78 168.966,2314.78 "/>
   </g>
  </g>
  <polygon class="fil1" points="168.966,2314.78 352.402,2314.78 352.402,2128.65 168.966,2128.65 "/>
  <g style="clip-path:url(#id26)">
   <polygon class="fil5" points="168.966,2128.65 352.402,2128.65 352.402,2314.78 168.966,2314.78 "/>
  </g>
  <g style="clip-path:url(#id27)">
   <g id="_247924616">
   </g>
   <g style="clip-path:url(#id28)">
    <image id="对象_x0020_1_5" transform="matrix(1 0 0 1 -1012.03 838.545)" x="1181" y="1290.12" width="183.436" height="186.134" xlink:href="subway.png"/>
   </g>
   <g style="clip-path:url(#id29)">
   </g>
  </g>
  <polygon class="fil1" points="168.966,2314.78 352.402,2314.78 352.402,2128.65 168.966,2128.65 "/>
  <polygon class="fil1" points="168.966,2314.78 352.402,2314.78 352.402,2128.65 168.966,2128.65 "/>
  <g style="clip-path:url(#id30)">
   <polygon class="fil5" points="2041.88,408.411 2184.92,408.411 2184.92,553.558 2041.88,553.558 "/>
  </g>
  <g style="clip-path:url(#id31)">
   <g id="_247927976">
    <polygon id="_2479287441" class="fil5" points="2041.88,408.403 2184.92,408.403 2184.92,553.558 2041.88,553.558 "/>
   </g>
  </g>
  <polygon class="fil1" points="2041.88,553.558 2184.92,553.558 2184.92,408.411 2041.88,408.411 "/>
  <g style="clip-path:url(#id32)">
   <polygon class="fil5" points="2041.88,408.411 2184.92,408.411 2184.92,553.558 2041.88,553.558 "/>
  </g>
  <g style="clip-path:url(#id33)">
   <g id="_247929080">
   </g>
   <g style="clip-path:url(#id34)">
    <image id="对象_x0020_1_6" transform="matrix(1 0 0 1 860.888 -922.705)" x="1181" y="1331.1" width="143.044" height="145.147" xlink:href="subway.png"/>
   </g>
   <g style="clip-path:url(#id35)">
   </g>
  </g>
  <polygon class="fil1" points="2041.88,553.558 2184.92,553.558 2184.92,408.411 2041.88,408.411 "/>
  <polygon class="fil1" points="2041.88,553.558 2184.92,553.558 2184.92,408.403 2041.88,408.403 "/>
 </g>
 <g id="picket">
  <metadata id="CorelCorpID_5Corel-Layer"/>
  <g style="clip-path:url(#id36)">
   <polygon class="fil5" points="1548.02,1538.89 1720.92,1538.89 1720.92,1709.45 1548.02,1709.45 "/>
  </g>
  <g style="clip-path:url(#id37)">
   <g id="_247931648">
    <polygon id="_2479322241" class="fil5" points="1548.02,1538.89 1720.92,1538.89 1720.92,1709.45 1548.02,1709.45 "/>
   </g>
  </g>
  <polygon class="fil1" points="1548.02,1709.45 1720.92,1709.45 1720.92,1538.89 1548.02,1538.89 "/>
  <g style="clip-path:url(#id38)">
   <polygon class="fil5" points="1548.02,1538.89 1720.92,1538.89 1720.92,1709.45 1548.02,1709.45 "/>
  </g>
  <g style="clip-path:url(#id39)">
   <g id="_247933664">
   </g>
   <g style="clip-path:url(#id40)">
    <image id="对象_x0020_1_7" transform="matrix(1 0 0 1 367.008 233.206)" x="1181" y="1305.69" width="172.902" height="170.562" xlink:href="ticket.png"/>
   </g>
   <g style="clip-path:url(#id41)">
   </g>
  </g>
  <polygon class="fil1" points="1548.02,1709.45 1720.92,1709.45 1720.92,1538.89 1548.02,1538.89 "/>
  <polygon class="fil1" points="1548.02,1709.45 1720.92,1709.45 1720.92,1538.89 1548.02,1538.89 "/>
  <g style="clip-path:url(#id42)">
   <polygon class="fil5" points="1758.91,1536.29 1931.82,1536.29 1931.82,1706.86 1758.91,1706.86 "/>
  </g>
  <g style="clip-path:url(#id43)">
   <g id="_247935920">
    <polygon id="_2479037601" class="fil5" points="1758.91,1536.29 1931.82,1536.29 1931.82,1706.86 1758.91,1706.86 "/>
   </g>
  </g>
  <polygon class="fil1" points="1758.91,1706.86 1931.82,1706.86 1931.82,1536.29 1758.91,1536.29 "/>
  <g style="clip-path:url(#id44)">
   <polygon class="fil5" points="1758.91,1536.29 1931.82,1536.29 1931.82,1706.86 1758.91,1706.86 "/>
  </g>
  <g style="clip-path:url(#id45)">
   <g id="_247904048">
   </g>
   <g style="clip-path:url(#id46)">
    <image id="对象_x0020_1_8" transform="matrix(1 0 0 1 577.926 230.602)" x="1181" y="1305.69" width="172.901" height="170.562" xlink:href="ticket.png"/>
   </g>
   <g style="clip-path:url(#id47)">
   </g>
  </g>
  <polygon class="fil1" points="1758.91,1706.86 1931.82,1706.86 1931.82,1536.29 1758.91,1536.29 "/>
  <polygon class="fil1" points="1758.91,1706.86 1931.82,1706.86 1931.82,1536.29 1758.91,1536.29 "/>
  <g style="clip-path:url(#id48)">
   <polygon class="fil5" points="870.632,860.374 1082.44,860.374 1082.44,1044.72 870.632,1044.72 "/>
  </g>
  <g style="clip-path:url(#id49)">
   <g id="_248693376">
    <polygon id="_2486938961" class="fil5" points="870.632,860.377 1082.43,860.377 1082.43,1044.72 870.632,1044.72 "/>
   </g>
  </g>
  <polygon class="fil1" points="870.632,1044.72 1082.44,1044.72 1082.44,860.374 870.632,860.374 "/>
  <g style="clip-path:url(#id50)">
   <polygon class="fil5" points="870.632,860.374 1082.44,860.374 1082.44,1044.72 870.632,1044.72 "/>
  </g>
  <g style="clip-path:url(#id51)">
   <g id="_248560080">
   </g>
   <g style="clip-path:url(#id52)">
    <image id="对象_x0020_1_9" transform="matrix(1 0 0 1 -310.362 -431.531)" x="1181" y="1291.9" width="211.805" height="184.348" xlink:href="ticketwindow.png"/>
   </g>
   <g style="clip-path:url(#id53)">
   </g>
  </g>
  <polygon class="fil1" points="870.632,1044.72 1082.44,1044.72 1082.44,860.374 870.632,860.374 "/>
  <polygon class="fil1" points="870.632,1044.72 1082.43,1044.72 1082.43,860.377 870.632,860.377 "/>
  <g style="clip-path:url(#id54)">
   <polygon class="fil5" points="867.113,1089.52 1078.92,1089.52 1078.92,1273.87 867.113,1273.87 "/>
  </g>
  <g style="clip-path:url(#id55)">
   <g id="_248560312">
    <polygon id="_2487205761" class="fil5" points="867.113,1089.52 1078.92,1089.52 1078.92,1273.87 867.113,1273.87 "/>
   </g>
  </g>
  <polygon class="fil1" points="867.113,1273.87 1078.92,1273.87 1078.92,1089.52 867.113,1089.52 "/>
  <g style="clip-path:url(#id56)">
   <polygon class="fil5" points="867.113,1089.52 1078.92,1089.52 1078.92,1273.87 867.113,1273.87 "/>
  </g>
  <g style="clip-path:url(#id57)">
   <g id="_248694952">
   </g>
   <g style="clip-path:url(#id58)">
    <image id="对象_x0020_1_10" transform="matrix(1 0 0 1 -313.885 -202.386)" x="1181" y="1291.9" width="211.806" height="184.347"  xlink:href="ticketwindow.png"/>
   </g>
   <g style="clip-path:url(#id59)">
   </g>
  </g>
  <polygon class="fil1" points="867.113,1273.87 1078.92,1273.87 1078.92,1089.52 867.113,1089.52 "/>
  <polygon class="fil1" points="867.113,1273.87 1078.92,1273.87 1078.92,1089.52 867.113,1089.52 "/>
 </g>
 <g id="ATM">
  <metadata id="CorelCorpID_6Corel-Layer"/>
  <g style="clip-path:url(#id60)">
   <polygon class="fil5" points="1307.44,1535.91 1483.19,1535.91 1483.19,1716.22 1307.44,1716.22 "/>
  </g>
  <g style="clip-path:url(#id61)">
   <g id="_248694544">
    <polygon id="_2487637521" class="fil5" points="1307.44,1535.91 1483.2,1535.91 1483.2,1716.22 1307.44,1716.22 "/>
   </g>
  </g>
  <polygon class="fil1" points="1307.44,1716.22 1483.19,1716.22 1483.19,1535.91 1307.44,1535.91 "/>
  <g style="clip-path:url(#id62)">
   <polygon class="fil5" points="1307.44,1535.91 1483.19,1535.91 1483.19,1716.22 1307.44,1716.22 "/>
  </g>
  <g style="clip-path:url(#id63)">
   <g id="_248764304">
   </g>
   <g style="clip-path:url(#id64)">
    <image id="对象_x0020_1_11" transform="matrix(1 0 0 1 126.439 239.958)" x="1181" y="1295.94" width="175.745" height="180.309" xlink:href="atm.png"/>
   </g>
   <g style="clip-path:url(#id65)">
   </g>
  </g>
  <polygon class="fil1" points="1307.44,1716.22 1483.19,1716.22 1483.19,1535.91 1307.44,1535.91 "/>
  <polygon class="fil1" points="1307.44,1716.22 1483.2,1716.22 1483.2,1535.91 1307.44,1535.91 "/>
  <g style="clip-path:url(#id66)">
   <polygon class="fil5" points="2023.52,1522.89 2199.26,1522.89 2199.26,1703.2 2023.52,1703.2 "/>
  </g>
  <g style="clip-path:url(#id67)">
   <g id="_248767504">
    <polygon id="_2487676481" class="fil5" points="2023.52,1522.89 2199.27,1522.89 2199.27,1703.2 2023.52,1703.2 "/>
   </g>
  </g>
  <polygon class="fil1" points="2023.52,1703.2 2199.26,1703.2 2199.26,1522.89 2023.52,1522.89 "/>
  <g style="clip-path:url(#id68)">
   <polygon class="fil5" points="2023.52,1522.89 2199.26,1522.89 2199.26,1703.2 2023.52,1703.2 "/>
  </g>
  <g style="clip-path:url(#id69)">
   <g id="_249069944">
   </g>
   <g style="clip-path:url(#id70)">
    <image id="对象_x0020_1_12" transform="matrix(1 0 0 1 842.525 226.937)" x="1181" y="1295.94" width="175.745" height="180.309" xlink:href="atm.png"/>
   </g>
   <g style="clip-path:url(#id71)">
   </g>
  </g>
  <polygon class="fil1" points="2023.52,1703.2 2199.26,1703.2 2199.26,1522.89 2023.52,1522.89 "/>
  <polygon class="fil1" points="2023.52,1703.2 2199.27,1703.2 2199.27,1522.89 2023.52,1522.89 "/>
 </g>
 <g id="咨询台">
  <metadata id="CorelCorpID_7Corel-Layer"/>
  <g style="clip-path:url(#id72)">
   <polygon class="fil5" points="747.817,1863.31 958.585,1863.31 958.585,2069.63 747.817,2069.63 "/>
  </g>
  <g style="clip-path:url(#id73)">
   <g id="_249202520">
    <polygon id="_2492006961" class="fil5" points="747.817,1863.31 958.589,1863.31 958.589,2069.63 747.817,2069.63 "/>
   </g>
  </g>
  <polygon class="fil1" points="747.817,2069.63 958.585,2069.63 958.585,1863.31 747.817,1863.31 "/>
  <g style="clip-path:url(#id74)">
   <polygon class="fil5" points="747.817,1863.31 958.585,1863.31 958.585,2069.63 747.817,2069.63 "/>
  </g>
  <g style="clip-path:url(#id75)">
   <g id="_249157392">
   </g>
   <g style="clip-path:url(#id76)">
    <image id="_248163776" transform="matrix(1 0 0 1 -433.177 593.409)" x="1181" y="1269.92" width="210.764" height="206.327" xlink:href="query.png"/>
   </g>
   <g style="clip-path:url(#id77)">
   </g>
  </g>
  <polygon class="fil1" points="747.817,2069.63 958.585,2069.63 958.585,1863.31 747.817,1863.31 "/>
  <polygon class="fil1" points="747.817,2069.63 958.589,2069.63 958.589,1863.31 747.817,1863.31 "/>
 </g>
 <g id="文字">
  <metadata id="CorelCorpID_8Corel-Layer"/>
  <path class="fil6 str3" d="M203.02 2377.1c6.50731,0.817252 10.1708,1.09479 10.9857,0.817252 0.817252,-0.263363 1.21643,-1.21643 1.21643,-2.84857l0 -29.6998 -14.635 5.69242c0,17.9158 0.124005,30.517 0.40154,37.8416l-6.11167 2.84857c0.277535,-9.49524 0.416893,-22.3764 0.416893,-38.66l-12.619 4.89525 0 39.4572c0,3.2631 1.7715,4.87753 5.29324,4.87753l30.915 0c2.98793,-0.537355 4.68857,-2.70803 5.08657,-6.50967 0.416893,-3.78156 0.608215,-8.2611 0.608215,-13.4162l2.04904 0c0.25982,5.41489 0.675532,9.49524 1.21289,12.2021 0.539717,2.70803 2.03132,4.61771 4.47835,5.69242 -2.1695,4.61771 -5.29324,6.92657 -9.35588,6.92657l-37.0267 0c-5.69242,0 -8.54099,-3.12374 -8.54099,-9.35588l0 -38.2585 -8.95434 3.2631 -2.44703 2.03132 -4.06264 -2.03132 15.4652 -5.69242 0 -14.6527c0,-3.52292 -0.139358,-7.72374 -0.416893,-12.6013l8.54099 4.46064 -2.84621 2.44703 0 18.7129 12.619 -4.87753 0 -19.5302c0,-4.87753 -0.139358,-9.49524 -0.416893,-13.8354l9.35588 4.06264 -3.64575 3.26546 0 24.0062 13.4185 -5.69596 3.24775 -4.07681 6.50967 4.87753 -3.24775 3.2631 0 30.9186c0,1.62978 -0.608215,3.19224 -1.83882,4.68503 -1.21643,1.49397 -3.03871,2.77889 -5.48575,3.85242 -0.277535,-2.98557 -3.66464,-5.55424 -10.1708,-7.72374l0 -1.63214 0.001181 0.001181zm-45.5689 12.6213l16.2824 -5.69596 0.397997 2.03132c-19.5278,8.40282 -30.517,14.2334 -32.9464,17.4989l-4.89524 -7.32456c3.2631,-0.817252 8.41699,-2.44703 15.4652,-4.87989l0 -36.6264 -1.62978 0c-3.52529,0 -6.76949,0.416893 -9.75742,1.23178l-3.6611 -3.6611 15.0495 0 0 -18.7307c0,-3.7851 -0.139358,-8.40282 -0.397997,-13.8212l9.35588 4.46064 -3.2631 2.84857 0 25.2403 4.08036 0 4.46064 -4.47835 6.92656 6.90885 -15.4676 0 0 34.9954 0 0.002362zm141.826 -45.5689c-3.24775,7.32456 -6.50967,13.1599 -9.75742,17.4989l-1.21289 -0.817252c4.06264,-8.41699 7.18638,-20.4844 9.35588,-36.2095l8.94017 4.87753 -3.24775 1.62978c-0.81489,2.1695 -1.90732,5.69596 -3.2631,10.5723l12.2021 0c0,-8.94017 -0.120462,-17.3583 -0.397997,-25.2226l9.35588 4.87753 -3.24539 2.84621 0 17.4989 11.3872 0 5.29324 -5.69242 7.30685 8.13945 -23.9885 0c-0.277535,7.86192 -0.679075,15.1912 -1.23414,21.9607l16.2824 0 5.27907 -5.69596 7.32456 8.14299 -26.0375 0c5.69242,19.8054 14.7885,31.8693 27.2693,36.2095l0 1.63214c-4.07681,-0.277535 -7.06474,1.07471 -8.95789,4.06264 -10.3101,-9.75742 -17.0796,-23.7322 -20.3427,-41.9042l-1.21643 0c-4.61771,20.6203 -17.0985,34.9954 -37.4259,43.1183l-0.817252 -1.21289c17.6205,-10.3125 28.4715,-24.2695 32.5519,-41.9042l-8.95789 0c-3.52529,0 -6.78721,0.416893 -9.75742,1.21289l-3.6611 -3.6611 22.7756 0c0.537355,-7.04703 0.953067,-14.3763 1.21289,-21.9607l-13.0182 0 0.002362 0.001181zm-26.4402 50.8633l16.6816 -9.77278 1.21643 1.21289c-11.9246,9.23542 -18.7129,15.8667 -20.3451,19.9471l-5.69242 -6.11168c1.62978,-1.35225 2.44703,-3.38357 2.44703,-6.09042l0 -21.9784 -2.44703 0c-3.52529,0 -6.76949,0.397997 -9.75742,1.21643l-3.6611 -3.66464 15.8667 0 0 -16.2647 -8.143 0c-2.4305,2.98557 -4.87753,5.83414 -7.32456,8.54099l-1.21289 -0.817252c6.50731,-9.75506 12.0639,-24.4054 16.6816,-43.9356l9.35588 4.87989 -3.26546 1.62978c-2.16714,4.87753 -3.78156,8.68035 -4.87753,11.3872l11.8041 0 4.87989 -5.27671 6.92302 7.72374 -24.4231 0c-2.70803,5.41843 -5.15507,9.89678 -7.32456,13.4185l17.4965 0 4.89525 -4.87753 6.50967 7.32456 -16.2824 0 0 16.2647 7.32456 0 4.87989 -4.46064 6.10931 6.90885 -18.3138 0 0 22.7933 -0.001181 0.002362zm125.875 -6.3715l-4.82675 13.2803 -40.6914 0 0 -1.87543c11.96,-10.9183 20.3982,-19.8408 25.2758,-26.7497 4.87753,-6.92656 7.32456,-13.2449 7.32456,-18.9751 0,-4.37324 -1.33689,-7.96585 -4.02721,-10.779 -2.67142,-2.81078 -5.86603,-4.21617 -9.59799,-4.21617 -3.40482,0 -6.44236,0.988497 -9.13149,2.96785 -2.69032,1.97818 -4.68503,4.89524 -5.96996,8.71224l-1.89196 0c0.85032,-6.2652 3.01982,-11.0742 6.54274,-14.4413 3.50757,-3.3505 7.88318,-5.03342 13.1422,-5.03342 5.58849,0 10.2593,1.80457 14.009,5.39717 3.74968,3.59378 5.6251,7.83003 5.6251,12.7076 0,3.48986 -0.817252,6.99388 -2.44703,10.4837 -2.50136,5.48574 -6.58053,11.3022 -12.2056,17.4457 -8.4347,9.21771 -13.7114,14.7743 -15.8136,16.6816l18.002 0c3.66464,0 6.23214,-0.139358 7.70957,-0.416893 1.47625,-0.25982 2.81078,-0.81489 3.99178,-1.6475 1.181,-0.834967 2.22382,-2.01361 3.10957,-3.543l1.87543 0 -0.004724 0.001181zm82.4362 -62.8056c0,12.2021 0.139358,20.0687 0.397997,23.6082l-6.09396 2.4305 0 -4.0591 -40.6878 0 0 3.6611 -6.09396 2.03132c0.25982,-5.4326 0.397997,-11.1959 0.397997,-17.2898 0,-6.10931 -0.139358,-11.8714 -0.397997,-17.2898l6.09396 3.24775 40.2721 0 3.66464 -4.06264 5.71014 4.87753 -3.2631 2.84621 0 -0.001181zm-46.3838 -1.21289l0 20.7443 40.6878 0 0 -20.7443 -40.6878 0zm48.832 54.9212c-2.44703,14.0952 -4.61771,22.2382 -6.50967,24.4077 -1.90968,2.1695 -3.80282,3.73196 -5.69596,4.68503 -1.90732,0.938895 -5.03342,1.96282 -9.37124,3.03871 -0.539717,-4.06264 -4.74171,-7.72374 -12.6036,-10.9715l0.397997 -1.62978c7.32456,2.1695 12.7607,3.24539 16.2824,3.24539 1.35461,0 3.05643,-0.397997 5.08657,-1.21289 2.03132,-0.817252 4.12996,-8.68035 6.30063,-23.594l-37.4259 0 -3.66464 3.24775 -4.87753 -5.69596c1.89196,-1.07471 3.45443,-2.84621 4.67086,-5.29324 1.21289,-2.4305 2.37617,-5.55424 3.45443,-9.35588l-23.1913 0 -3.64575 0.81489 -3.2631 -3.24539 78.5152 0 5.29324 -5.29324 7.32456 7.72374 -54.1075 0 -5.69596 14.6503 36.2118 0 4.46064 -4.47599 6.11167 6.10931 -4.06264 2.84621 0.004724 -0.001181zm97.4703 -32.9641c0,3.80282 0.279897,8.81853 0.817252,15.0696l19.1287 -2.04904 5.27671 -6.09396 8.14299 6.90885 -32.1315 3.2631c0.797175,8.40282 2.1695,15.0518 4.06264,19.9294 5.96995,-5.41488 10.7081,-11.1097 14.2334,-17.0796l7.32456 7.32456 -3.66464 0.397997c-5.15507,4.87753 -10.3101,9.77277 -15.4475,14.6503 4.87753,6.78721 10.57,11.5266 17.0796,14.237l5.69596 -19.5302 1.62978 0.416893c-0.537355,6.23214 -0.88575,11.3872 -1.02393,15.4498 -0.139358,4.08036 0.486572,7.32456 1.84236,9.77277 0.25982,0.537355 0.397997,0.95661 0.397997,1.21643 0,1.09243 -1.4231,1.42311 -4.27168,1.02393 -2.84621,-0.419255 -6.64549,-2.03132 -11.3848,-4.87989 -4.75589,-2.86393 -9.5661,-7.39306 -14.4436,-13.6441 -4.87753,3.26546 -9.84364,5.9735 -14.8593,8.14299 -5.01571,2.1695 -11.3163,4.34018 -18.922,6.50731l-0.397997 -1.62978c11.6647,-4.34018 22.1001,-10.2948 31.3343,-17.8981 -2.44703,-7.32456 -4.08035,-15.1912 -4.89524,-23.5905l-16.6675 2.03132 -3.2631 1.62978 -4.47835 -3.2631 24.0062 -2.4305c-0.277535,-3.80282 -0.537355,-8.95788 -0.81489,-15.4676l-11.8041 0.817252 -2.4305 1.62978 -3.66464 -3.2631 17.8981 -1.21643c-0.25982,-9.49524 -0.537355,-18.9905 -0.81489,-28.4857l9.35588 4.47835 -3.24775 2.84621c0,5.69596 0.139358,12.6213 0.397997,20.7443l17.4989 -1.61443 5.29324 -6.10931 8.143 7.32456 -30.9363 2.4305 0.004724 0.002362zm6.11167 -23.1736l0.397997 -1.23178c8.42053,2.1695 13.0205,4.0095 13.8354,5.49992 0.817252,1.49397 1.21643,2.77889 1.21643,3.85597 0,1.35225 -0.25982,2.72457 -0.799537,4.07681 -0.55507,1.35461 -1.09243,2.03132 -1.62978,2.03132 -0.539717,0 -1.35461,-1.09243 -2.44703,-3.2631 -1.89196,-2.98557 -5.41843,-6.63132 -10.5723,-10.9715l-0.001181 0.002362zm-44.7505 -5.29442l8.12174 5.29324c-2.1695,0.797175 -4.46064,3.52529 -6.90885,8.12528 -2.44703,4.89524 -6.90885,11.8041 -13.4185,20.762l16.684 -1.63214c3.24539,-5.4326 5.81288,-10.8498 7.72374,-16.2824l7.32456 5.29324c-1.90968,1.09479 -5.15507,5.01571 -9.77278,11.8041 -4.6,6.76949 -10.5723,14.9125 -17.8981,24.4077 3.80282,-0.539717 12.2021,-2.03132 25.2226,-4.47835l0 1.63214c-7.32456,1.8896 -13.0205,3.59378 -17.0796,5.08421 -4.08035,1.49397 -8.14299,3.59378 -12.2056,6.30064l-4.89525 -8.53863c2.98793,-0.817252 6.44236,-3.73196 10.381,-8.75121 3.94218,-5.01571 7.39542,-9.96173 10.381,-14.8393 -2.98557,0.537355 -6.10931,1.28375 -9.35588,2.23799 -3.2631,0.935352 -6.24749,2.63954 -8.95789,5.07003l-4.47835 -7.7261c2.98793,-0.537355 6.44236,-4.40749 10.381,-11.5939 3.92328,-7.18638 6.84035,-14.583 8.75121,-22.1674l0 -0.001181zm-19.5314 77.698c7.58793,-1.07471 13.6972,-2.02778 18.2961,-2.84621 4.61771,-0.81489 12.0816,-2.29114 22.3764,-4.46064l0.416893 1.61443c-12.2021,3.52292 -21.0927,6.31835 -26.6457,8.34967 -5.57078,2.03132 -9.0252,3.73196 -10.381,5.08657l-4.06264 -7.74382z"/>
  <path class="fil6 str5" d="M1733.68 616.495c6.50731,0.817252 10.1708,1.09479 10.9857,0.817252 0.817252,-0.263363 1.21643,-1.21643 1.21643,-2.84857l0 -29.6998 -14.635 5.69242c0,17.9158 0.124005,30.517 0.40154,37.8416l-6.11168 2.84857c0.277535,-9.49524 0.416893,-22.3764 0.416893,-38.66l-12.619 4.89525 0 39.4572c0,3.2631 1.7715,4.87753 5.29324,4.87753l30.915 0c2.98793,-0.537355 4.68857,-2.70803 5.08657,-6.50967 0.416893,-3.78156 0.608215,-8.2611 0.608215,-13.4162l2.04904 0c0.25982,5.41488 0.675532,9.49524 1.21289,12.2021 0.539717,2.70803 2.03132,4.61771 4.47835,5.69242 -2.1695,4.61771 -5.29324,6.92656 -9.35588,6.92656l-37.0267 0c-5.69242,0 -8.54099,-3.12374 -8.54099,-9.35588l0 -38.2585 -8.95434 3.2631 -2.44703 2.03132 -4.06264 -2.03132 15.4652 -5.69242 0 -14.6527c0,-3.52292 -0.139358,-7.72374 -0.416893,-12.6013l8.54099 4.46064 -2.84621 2.44703 0 18.7129 12.619 -4.87753 0 -19.5302c0,-4.87753 -0.139358,-9.49524 -0.416893,-13.8354l9.35588 4.06264 -3.64575 3.26547 0 24.0062 13.4185 -5.69596 3.24775 -4.07681 6.50967 4.87753 -3.24775 3.2631 0 30.9186c0,1.62978 -0.608215,3.19224 -1.83882,4.68503 -1.21643,1.49397 -3.03871,2.77889 -5.48574,3.85242 -0.277535,-2.98557 -3.66464,-5.55424 -10.1708,-7.72374l0 -1.63214 0.001181 0.001181zm-45.5689 12.6225l16.2824 -5.69596 0.397997 2.03132c-19.5278,8.40281 -30.517,14.2334 -32.9464,17.4989l-4.89525 -7.32456c3.2631,-0.817252 8.41699,-2.44703 15.4652,-4.87989l0 -36.6264 -1.62978 0c-3.52528,0 -6.76949,0.416893 -9.75742,1.23178l-3.6611 -3.6611 15.0495 0 0 -18.7307c0,-3.7851 -0.139358,-8.40281 -0.397997,-13.8212l9.35588 4.46064 -3.2631 2.84857 0 25.2403 4.08036 0 4.46064 -4.47835 6.92656 6.90885 -15.4676 0 0 34.9954 0 0.002362zm141.825 -45.5689c-3.24775,7.32456 -6.50967,13.1599 -9.75742,17.4989l-1.21289 -0.817252c4.06264,-8.41699 7.18638,-20.4844 9.35588,-36.2095l8.94017 4.87753 -3.24775 1.62978c-0.81489,2.1695 -1.90732,5.69596 -3.2631,10.5723l12.2021 0c0,-8.94017 -0.120462,-17.3583 -0.397997,-25.2226l9.35588 4.87753 -3.24539 2.84621 0 17.4989 11.3872 0 5.29324 -5.69242 7.30685 8.13945 -23.9885 0c-0.277535,7.86192 -0.679075,15.1912 -1.23414,21.9607l16.2824 0 5.27907 -5.69596 7.32456 8.143 -26.0375 0c5.69242,19.8054 14.7885,31.8693 27.2693,36.2095l0 1.63214c-4.07681,-0.277535 -7.06474,1.07471 -8.95789,4.06264 -10.3101,-9.75742 -17.0796,-23.7322 -20.3427,-41.9042l-1.21643 0c-4.61771,20.6203 -17.0985,34.9954 -37.4259,43.1183l-0.817252 -1.21289c17.6205,-10.3125 28.4715,-24.2695 32.5519,-41.9042l-8.95789 0c-3.52528,0 -6.78721,0.416893 -9.75742,1.21289l-3.6611 -3.6611 22.7756 0c0.537355,-7.04703 0.953067,-14.3763 1.21289,-21.9607l-13.0182 0 0.002362 0.001181zm-26.439 50.8621l16.6816 -9.77277 1.21643 1.21289c-11.9246,9.23542 -18.7129,15.8667 -20.3451,19.9471l-5.69242 -6.11167c1.62978,-1.35224 2.44703,-3.38356 2.44703,-6.09042l0 -21.9784 -2.44703 0c-3.52528,0 -6.76949,0.397997 -9.75742,1.21643l-3.6611 -3.66464 15.8667 0 0 -16.2647 -8.14299 0c-2.4305,2.98557 -4.87753,5.83414 -7.32456,8.54099l-1.21289 -0.817252c6.50731,-9.75506 12.0639,-24.4054 16.6816,-43.9356l9.35588 4.87989 -3.26547 1.62978c-2.16713,4.87753 -3.78156,8.68035 -4.87753,11.3872l11.8041 0 4.87989 -5.27671 6.92302 7.72374 -24.4231 0c-2.70803,5.41843 -5.15506,9.89678 -7.32456,13.4185l17.4965 0 4.89525 -4.87753 6.50967 7.32456 -16.2824 0 0 16.2647 7.32456 0 4.87989 -4.46064 6.10931 6.90885 -18.3138 0 0 22.7933 -0.001181 0.002362zm90.3193 -55.2885l16.7879 -8.1926 1.68293 0 0 58.2387c0,3.85596 0.155892,6.26757 0.468857,7.22181 0.33068,0.938895 1.00621,1.66757 2.0136,2.18721 1.02393,0.504287 3.08831,0.797175 6.21442,0.868035l0 1.87543 -25.9525 0 0 -1.87543c3.2631,-0.07086 5.3641,-0.348395 6.31835,-0.85032 0.935352,-0.486572 1.59789,-1.14557 1.97818,-1.97817 0.36611,-0.834967 0.55507,-3.31625 0.55507,-7.44857l0 -37.2334c0,-5.01571 -0.171245,-8.22803 -0.501925,-9.65113 -0.242105,-1.09479 -0.675532,-1.89196 -1.30264,-2.39743 -0.62593,-0.501925 -1.3735,-0.761745 -2.25571,-0.761745 -1.25186,0 -3.00564,0.51964 -5.24364,1.58018l-0.764107 -1.58018 0.001181 -0.002362zm50.3756 6.35378c1.96282,-4.63543 4.4441,-8.22803 7.44857,-10.7471 3.0021,-2.53324 6.73524,-3.79928 11.2136,-3.79928 5.51763,0 9.75506,1.80457 12.7076,5.39717 2.23799,2.67497 3.36585,5.53889 3.36585,8.59414 0,5.01571 -3.15918,10.2062 -9.45981,15.5538 4.23388,1.66521 7.42849,4.04138 9.59799,7.13324 2.1695,3.07296 3.26546,6.69863 3.26546,10.8829 0,5.9546 -1.89196,11.1274 -5.69596,15.503 -4.94839,5.69242 -12.1171,8.54099 -21.5096,8.54099 -4.65078,0 -7.80877,-0.572785 -9.49524,-1.7219 -1.66521,-1.15974 -2.51553,-2.39389 -2.51553,-3.71425 0,-0.988497 0.397997,-1.85771 1.19517,-2.60411 0.799537,-0.74403 1.75379,-1.11014 2.88164,-1.11014 0.834967,0 1.703,0.139358 2.58639,0.397997 0.572785,0.173607 1.87543,0.799537 3.92328,1.85771 2.03132,1.07707 3.43671,1.703 4.21971,1.90968 1.2495,0.381463 2.58639,0.55507 4.0095,0.55507 3.45442,0 6.47424,-1.33453 9.0252,-4.00949 2.57104,-2.67142 3.83825,-5.84831 3.83825,-9.51296 0,-2.67142 -0.5905,-5.29324 -1.7715,-7.82649 -0.88575,-1.89196 -1.85771,-3.33396 -2.89936,-4.32246 -1.45853,-1.35461 -3.45442,-2.58875 -6.00538,-3.68236 -2.53325,-1.11014 -5.13735,-1.66521 -7.77688,-1.66521l-1.63214 0 0 -1.5294c2.67496,-0.327137 5.3641,-1.30264 8.05442,-2.89935 2.7104,-1.58018 4.67086,-3.50403 5.88374,-5.74557 1.21643,-2.23799 1.82464,-4.68503 1.82464,-7.36117 0,-3.50403 -1.09479,-6.31835 -3.27964,-8.47013 -2.18721,-2.15296 -4.89524,-3.22649 -8.16071,-3.22649 -5.25781,0 -9.63342,2.81078 -13.1741,8.4347l-1.66757 -0.81489 0.002362 0.002362zm124.899 -20.2423c0,12.2021 0.139358,20.0687 0.397997,23.6082l-6.09396 2.4305 0 -4.0591 -40.6878 0 0 3.6611 -6.09396 2.03132c0.25982,-5.4326 0.397997,-11.1959 0.397997,-17.2898 0,-6.10931 -0.139358,-11.8714 -0.397997,-17.2898l6.09396 3.24775 40.2721 0 3.66464 -4.06264 5.71014 4.87753 -3.2631 2.84621 0 -0.001181zm-46.3838 -1.21289l0 20.7443 40.6878 0 0 -20.7443 -40.6878 0zm48.832 54.9224c-2.44703,14.0952 -4.61771,22.2382 -6.50967,24.4077 -1.90968,2.1695 -3.80282,3.73196 -5.69596,4.68503 -1.90732,0.938895 -5.03342,1.96282 -9.37124,3.03871 -0.539717,-4.06264 -4.74172,-7.72374 -12.6036,-10.9715l0.397997 -1.62978c7.32456,2.1695 12.7607,3.24539 16.2824,3.24539 1.35461,0 3.05643,-0.397997 5.08657,-1.21289 2.03132,-0.817252 4.12996,-8.68035 6.30063,-23.594l-37.4259 0 -3.66464 3.24775 -4.87753 -5.69596c1.89196,-1.07471 3.45443,-2.84621 4.67086,-5.29324 1.21289,-2.4305 2.37617,-5.55424 3.45443,-9.35588l-23.1913 0 -3.64575 0.81489 -3.2631 -3.24539 78.5152 0 5.29324 -5.29324 7.32456 7.72374 -54.1075 0 -5.69596 14.6503 36.2118 0 4.46064 -4.47599 6.11168 6.10931 -4.06264 2.84621 0.004724 -0.001181zm97.4703 -32.9653c0,3.80282 0.279897,8.81853 0.817252,15.0696l19.1287 -2.04904 5.27671 -6.09396 8.143 6.90885 -32.1315 3.2631c0.797175,8.40282 2.1695,15.0518 4.06264,19.9294 5.96996,-5.41489 10.7081,-11.1097 14.2334,-17.0796l7.32456 7.32456 -3.66464 0.397997c-5.15506,4.87753 -10.3101,9.77278 -15.4475,14.6503 4.87753,6.78721 10.57,11.5266 17.0796,14.237l5.69596 -19.5302 1.62978 0.416893c-0.537355,6.23214 -0.88575,11.3872 -1.02393,15.4498 -0.139358,4.08036 0.486572,7.32456 1.84236,9.77278 0.25982,0.537355 0.397997,0.95661 0.397997,1.21643 0,1.09242 -1.4231,1.4231 -4.27168,1.02393 -2.84621,-0.419255 -6.64549,-2.03132 -11.3848,-4.87989 -4.75589,-2.86392 -9.5661,-7.39306 -14.4436,-13.6441 -4.87753,3.26547 -9.84364,5.9735 -14.8593,8.143 -5.01571,2.1695 -11.3163,4.34018 -18.922,6.50731l-0.397997 -1.62978c11.6647,-4.34017 22.1001,-10.2948 31.3343,-17.8981 -2.44703,-7.32456 -4.08036,-15.1912 -4.89525,-23.5905l-16.6675 2.03132 -3.2631 1.62978 -4.47835 -3.2631 24.0062 -2.4305c-0.277535,-3.80282 -0.537355,-8.95789 -0.81489,-15.4676l-11.8041 0.817252 -2.4305 1.62978 -3.66464 -3.2631 17.8981 -1.21643c-0.25982,-9.49524 -0.537355,-18.9905 -0.81489,-28.4857l9.35588 4.47835 -3.24775 2.84621c0,5.69596 0.139358,12.6213 0.397997,20.7443l17.4989 -1.61443 5.29324 -6.10931 8.14299 7.32456 -30.9363 2.4305 0.004724 0.002362zm6.11168 -23.1736l0.397997 -1.23178c8.42053,2.1695 13.0205,4.0095 13.8354,5.49992 0.817252,1.49397 1.21643,2.77889 1.21643,3.85597 0,1.35224 -0.25982,2.72457 -0.799537,4.07681 -0.55507,1.35461 -1.09243,2.03132 -1.62978,2.03132 -0.539717,0 -1.35461,-1.09243 -2.44703,-3.2631 -1.89196,-2.98557 -5.41843,-6.63131 -10.5723,-10.9715l-0.001181 0.002362zm-44.7505 -5.29324l8.12174 5.29324c-2.1695,0.797175 -4.46064,3.52528 -6.90885,8.12528 -2.44703,4.89524 -6.90885,11.8041 -13.4185,20.762l16.684 -1.63214c3.24539,-5.4326 5.81288,-10.8498 7.72374,-16.2824l7.32456 5.29324c-1.90968,1.09479 -5.15506,5.01571 -9.77277,11.8041 -4.6,6.76949 -10.5723,14.9125 -17.8981,24.4077 3.80282,-0.539717 12.2021,-2.03132 25.2226,-4.47835l0 1.63214c-7.32456,1.8896 -13.0205,3.59378 -17.0796,5.08421 -4.08036,1.49396 -8.143,3.59378 -12.2056,6.30063l-4.89525 -8.53863c2.98793,-0.817252 6.44236,-3.73196 10.381,-8.75121 3.94218,-5.01571 7.39542,-9.96173 10.381,-14.8393 -2.98557,0.537355 -6.10931,1.28375 -9.35588,2.23799 -3.2631,0.935352 -6.24749,2.63954 -8.95789,5.07003l-4.47835 -7.7261c2.98793,-0.537355 6.44235,-4.40749 10.381,-11.5939 3.92328,-7.18638 6.84035,-14.583 8.75121,-22.1674l0 -0.001181zm-19.5314 77.6968c7.58792,-1.07471 13.6972,-2.02778 18.2961,-2.84621 4.61771,-0.81489 12.0816,-2.29114 22.3764,-4.46064l0.416893 1.61443c-12.2021,3.52292 -21.0927,6.31835 -26.6457,8.34967 -5.57078,2.03132 -9.0252,3.73196 -10.381,5.08657l-4.06264 -7.74382z"/>
  <path class="fil7 str3" d="M862.898 2634.82l0 35.3946c0,20.0687 -7.6021,35.3946 -22.7933,45.9669l-1.21643 -1.21643c12.2056,-11.125 18.2961,-26.0375 18.2961,-44.7505l0 -19.5278c0,-7.32456 -0.120462,-14.792 -0.397997,-22.3764l6.11167 4.06264 18.7129 0 3.66464 -4.06264 6.50731 5.69242 -4.07681 2.43286 0 66.3273c0,2.70803 1.35224,4.06264 4.07681,4.06264l4.87753 0c1.35461,0 2.30885,-1.09243 2.84857,-3.2631 0.537355,-2.1695 0.953067,-7.04703 1.21289,-14.635l2.03132 0c0,5.9546 0.277535,9.9641 0.817252,11.9954 0.55507,2.03132 1.90731,3.59378 4.07681,4.68503 -1.62978,3.24775 -3.33396,5.08657 -5.0842,5.48574 -1.7715,0.416893 -3.47214,0.608215 -5.08657,0.608215l-8.54099 0c-4.61771,0 -6.92656,-2.1695 -6.92656,-6.50967l0 -70.3722 -19.1109 0zm-27.2728 28.0688c0,28.7455 0.139358,46.1062 0.416893,52.0762l-6.50967 2.84857c0.263363,-11.9423 0.40154,-28.4881 0.40154,-49.6492 -4.06264,11.4049 -10.035,21.4411 -17.8981,30.1179l-0.81489 -1.23178c8.13945,-12.743 14.2334,-28.4715 18.3114,-47.1845l-9.77278 0 -3.6611 0.817252 -3.24775 -3.26546 17.0832 0c0,-9.49524 -0.139358,-18.3138 -0.40154,-26.4367l8.94017 3.6611 -2.84621 2.84857 0 19.927 5.69596 0 4.47835 -4.47835 6.92302 6.92657 -17.0985 0 0 10.9892c6.50967,2.4305 10.779,4.34018 12.8103,5.69596 2.04904,1.35225 3.05643,3.10603 3.05643,5.27671 0,1.35461 -0.192503,2.72457 -0.608215,4.08036 -0.397997,1.35224 -0.746392,2.03132 -1.00621,2.03132 -0.81489,0 -2.04904,-1.35461 -3.6611,-4.06264 -2.44703,-3.80282 -5.9735,-7.46392 -10.59,-10.9892l-0.001181 0.001181zm173.975 -1.2306l4.06264 -4.06264 6.10931 6.10931 -3.6611 2.4305c-1.07707,18.7165 -2.1695,30.6588 -3.24775,35.8138 -1.09242,5.15507 -2.91707,8.74767 -5.50346,10.779 -2.56868,2.03132 -5.08421,3.45442 -7.51352,4.26932 -1.09479,-4.33663 -5.43496,-7.72374 -13.0205,-10.1708l0.397997 -1.63214c4.87753,1.09479 9.14921,1.84236 12.8103,2.24036 3.66464,0.416893 6.04082,-2.24036 7.11789,-7.93278 1.09243,-5.69596 2.1695,-17.4989 3.2631,-35.3946l-8.54099 0c-3.2631,15.1877 -8.95434,26.7142 -17.0985,34.5797 -8.12174,7.86192 -18.0374,13.6937 -29.7021,17.4965l-0.397997 -1.63214c10.8498,-4.87753 19.7369,-11.3872 26.6457,-19.5278 6.92656,-8.12528 11.5974,-18.4354 14.0445,-30.915l-8.95789 0c-2.1695,7.04703 -5.41843,13.7646 -9.75506,20.1361 -4.34017,6.37149 -11.8065,12.2741 -22.3764,17.7056l-0.817252 -1.63214c6.50967,-4.06264 12.0663,-9.21771 16.684,-15.4652 4.6,-6.23214 7.86192,-13.1422 9.75506,-20.7443l-9.35588 0 -3.66464 2.44703 -4.47835 -5.69596 4.47835 -1.63214c10.59,-8.95434 20.3451,-18.172 29.303,-27.6708l-25.6395 0 -4.47835 0.817252 -3.24539 -3.26546 33.3632 0 4.06264 -4.0591 6.50967 5.69242 -4.06264 2.03132c-10.59,10.8498 -21.0218,20.4844 -31.3343,28.8873l38.2431 0 0.001181 -0.002362zm-60.218 24.8211l17.0985 -7.72374 0.397997 1.63214c-19.7877,11.1073 -31.7311,18.5748 -35.7926,22.374l-5.29324 -7.32456c4.33663,-1.35461 10.1708,-3.52292 17.4965,-6.50967l0 -34.9954 -3.2631 0c-3.52528,0 -6.76949,0.416893 -9.75742,1.21643l-3.6611 -3.66464 16.6816 0 0 -13.4185c0,-4.61771 -0.139358,-9.75506 -0.416893,-15.4652l10.1708 4.89525 -3.6611 3.6611 0 20.3274 6.10931 0 4.47835 -4.46064 6.90885 6.90885 -17.4965 0 0 32.5484 0 -0.001181zm112.956 -39.8729l0 52.0797c0,4.87753 0.120462,10.0326 0.397997,15.4652l-6.50967 2.84621c0.279897,-8.67681 0.40154,-15.8644 0.40154,-21.5592l0 -57.771c0,-5.71013 -0.120462,-11.1274 -0.40154,-16.2824l9.77514 4.06264 -3.66464 3.2631 0 15.8667c4.87753,1.89196 8.40281,3.66464 10.5723,5.29324 2.1695,1.61443 3.24539,3.45442 3.24539,5.48574 0,2.03132 -0.468857,3.59378 -1.42311,4.68857 -0.938895,1.07471 -1.54357,1.61443 -1.8211,1.61443 -0.817252,0 -1.63214,-1.35461 -2.44703,-4.06264 -1.35461,-3.52529 -4.06264,-7.18638 -8.12528,-10.9892l0 -0.001181zm-11.4049 2.84621c0.55507,4.61771 0.817252,7.74382 0.817252,9.35588 0,1.63214 -0.263363,3.59378 -0.817252,5.90264 -0.537355,2.30886 -1.49042,3.73196 -2.84621,4.27168 -1.35461,0.55507 -2.30885,0.81489 -2.84621,0.81489 -0.539717,0 -1.21643,-0.25982 -2.03132,-0.81489 -0.817252,-0.539717 -1.21643,-1.07707 -1.21643,-1.61443 0,-1.09479 0.817252,-2.72457 2.4305,-4.89524 2.44703,-2.98557 4.08036,-7.32456 4.89525,-13.0205l1.61443 0zm42.3211 -7.72374c0,-6.78721 -0.139358,-13.5579 -0.416893,-20.3451l9.77278 4.06264 -3.6611 3.2631 0 13.0205 17.8981 0 3.2631 -4.06264 6.90885 5.27671 -3.66464 2.84857 0 26.4544 0.817252 0 5.29324 -5.29324 7.72374 7.72374 -34.5797 0c4.87989,12.221 10.2416,20.8328 16.0758,25.8485 5.83178,5.01571 11.7179,7.93278 17.6878,8.74767l0 1.61443c-5.15507,0.55507 -8.26464,2.30886 -9.35588,5.29324 -13.8354,-9.21771 -22.6539,-23.0531 -26.4367,-41.5062l-2.84857 0c-3.52292,19.8077 -14.3728,33.9219 -32.5484,42.3211l-0.81489 -1.21289c15.7286,-10.59 24.9463,-24.2873 27.6708,-41.1071l-10.9892 0c-3.52292,0 -6.78721,0.416893 -9.77278,1.23414l-3.66464 -3.66464 24.8246 0c0.537355,-7.6021 0.81489,-16.9592 0.81489,-28.0688l-12.619 0 -3.66464 0.797175 -3.24539 -3.24539 19.5278 0 0.003543 0zm5.69478 2.44703c0,10.2924 -0.277535,19.6483 -0.81489,28.0688l19.5278 0 0 -28.0688 -18.7129 0zm115.785 7.30803c0,3.80282 0.279897,8.81853 0.817252,15.0696l19.1287 -2.04904 5.27671 -6.09396 8.14299 6.90885 -32.1315 3.2631c0.797175,8.40281 2.1695,15.0518 4.06264,19.9294 5.96996,-5.41489 10.7081,-11.1097 14.2334,-17.0796l7.32456 7.32456 -3.66464 0.397997c-5.15506,4.87753 -10.3101,9.77277 -15.4475,14.6503 4.87753,6.78721 10.5699,11.5266 17.0796,14.237l5.69596 -19.5302 1.62978 0.416893c-0.537355,6.23214 -0.88575,11.3872 -1.02393,15.4498 -0.139358,4.08036 0.486572,7.32456 1.84236,9.77277 0.25982,0.537355 0.397997,0.95661 0.397997,1.21643 0,1.09242 -1.4231,1.4231 -4.27168,1.02393 -2.84621,-0.419255 -6.64549,-2.03132 -11.3848,-4.87989 -4.75589,-2.86392 -9.5661,-7.39306 -14.4436,-13.6441 -4.87753,3.26547 -9.84363,5.9735 -14.8593,8.143 -5.01571,2.1695 -11.3163,4.34018 -18.922,6.50731l-0.397997 -1.62978c11.6647,-4.34017 22.1001,-10.2948 31.3343,-17.8981 -2.44703,-7.32456 -4.08036,-15.1912 -4.89524,-23.5905l-16.6675 2.03132 -3.2631 1.62978 -4.47835 -3.2631 24.0062 -2.4305c-0.277535,-3.80282 -0.537355,-8.95788 -0.81489,-15.4676l-11.8041 0.817252 -2.4305 1.62978 -3.66464 -3.2631 17.8981 -1.21643c-0.25982,-9.49524 -0.537355,-18.9905 -0.81489,-28.4857l9.35588 4.47835 -3.24775 2.84621c0,5.69596 0.139358,12.6213 0.397997,20.7443l17.4989 -1.61443 5.29324 -6.10931 8.14299 7.32456 -30.9363 2.4305 0.004724 0.002362zm6.11168 -23.1748l0.397997 -1.23178c8.42053,2.1695 13.0205,4.00949 13.8354,5.49992 0.817252,1.49397 1.21643,2.77889 1.21643,3.85597 0,1.35225 -0.25982,2.72457 -0.799537,4.07681 -0.55507,1.35461 -1.09242,2.03132 -1.62978,2.03132 -0.539717,0 -1.35461,-1.09243 -2.44703,-3.2631 -1.89196,-2.98557 -5.41843,-6.63132 -10.5723,-10.9715l-0.001181 0.002362zm-44.7505 -5.29324l8.12174 5.29324c-2.1695,0.797175 -4.46064,3.52529 -6.90885,8.12528 -2.44703,4.89525 -6.90885,11.8041 -13.4185,20.762l16.684 -1.63214c3.24539,-5.4326 5.81288,-10.8498 7.72374,-16.2824l7.32456 5.29324c-1.90968,1.09479 -5.15507,5.01571 -9.77278,11.8041 -4.59999,6.76949 -10.5723,14.9125 -17.8981,24.4077 3.80282,-0.539717 12.2021,-2.03132 25.2226,-4.47835l0 1.63214c-7.32456,1.8896 -13.0205,3.59378 -17.0796,5.0842 -4.08036,1.49397 -8.14299,3.59378 -12.2056,6.30064l-4.89524 -8.53863c2.98793,-0.817252 6.44235,-3.73196 10.381,-8.75121 3.94218,-5.01571 7.39542,-9.96174 10.381,-14.8393 -2.98557,0.537355 -6.10931,1.28375 -9.35588,2.23799 -3.2631,0.935352 -6.24749,2.63953 -8.95789,5.07003l-4.47835 -7.7261c2.98793,-0.537355 6.44235,-4.40749 10.381,-11.5939 3.92328,-7.18638 6.84035,-14.583 8.75121,-22.1674l0 -0.001181zm-19.5314 77.698c7.58793,-1.07471 13.6972,-2.02778 18.2961,-2.84621 4.61771,-0.81489 12.0816,-2.29114 22.3764,-4.46064l0.416893 1.61443c-12.2021,3.52292 -21.0927,6.31835 -26.6457,8.34967 -5.57078,2.03132 -9.0252,3.73196 -10.381,5.08657l-4.06264 -7.74382z"/>
 </g>


<defs>
   <g id= "pointer" >
       <polygon class="fil3 str0" points="0,-60 -20,-25 20,-25 "/>
       <circle class="fil3 str0" cx="0" cy="0" r="20"/>
   </g>


   <g id ="pointer2" >
      <image  x="0" y="0" width="140" height="140" xlink:href="point.png"/>
   </g>

   <g id= "select_pointer">
       <circle class="fil20 str0" cx="0" cy="0" r="20"/>
   
   </g>
   
   <g id ="destination" >
      <image  x="0" y="0" width="160" height="160" xlink:href="destination.png"/>
   </g>

   <g id ="code2" >
      <image  x="0" y="0" width="160" height="160" xlink:href="code2.png"/>
   </g>
</defs>

<g id = "L4">

</g>

<!-- 导引路线 -->
<g id = "L3">
 
</g>



<!-- 行人朝向指示，地图缩放时大小不变 -->

<g id="L5" >
   <use id="pnow" x="0" y="0" xlink:href = '#pointer2'/>

</g>

<!-- 目的地指示 ，地图缩放时大小不变 -->
<g id="L7" >
    <use id = "mappin" x= "-80" y = "-160" xlink:href= '#destination'/>

</g>


<!--扫码定位 -->
<g id="L8" >
    <use id = "scan" x= "10" y = "10" xlink:href= '#code2'/>
</g>


<script language="javascript" type="text/javascript">
    
    function accAdd(arg1,arg2){
         var t1 = 0, t2 = 0, m;
         try
         {
             t1 = arg1.toString().split(".")[1].length;
         }
         catch(e)
        {t1 = 0;}
        try
        {
              t2 = arg2.toString().split(".")[1].length;
        }
        catch(e)
          {t2 = 0;}
        with(Math)
       {
           m=Math.pow(10,Math.max(t1,t2));
           return (arg1  * m + arg2 * m) / m;
       }
    }


	function setVisibility(layer,v){
	    var l2= document.getElementById(layer);
	    	l2.setAttribute("visibility",v);
	}

      <!-- 导引路线 -->
      function drawPath(myPath){
	    var l3= document.getElementById("L3");
            var pathold= document.getElementById("path");
            if(pathold){
                l3.removeChild(pathold);  
            }
            var node=document.createElementNS("http://www.w3.org/2000/svg","path");
            node.setAttribute("id","path")
	    node.setAttribute("fill","none");
	    node.setAttribute("stroke","red");
            node.setAttribute("stroke-miterlimit","10");
	    node.setAttribute("stroke-width","7");
	    node.setAttribute("d",myPath);
	    l3.appendChild(node);
	}

      function drawcircle(x,y){
	    var l4= document.getElementById("L4");
            var node=document.createElementNS("http://www.w3.org/2000/svg","circle");
	    node.setAttribute("fill","red");
	    node.setAttribute("stroke","red");
	    node.setAttribute("stroke-miterlimit","10");
	    node.setAttribute("cx",x);
            node.setAttribute("cy",y);
      	    node.setAttribute("r",20);
	    l4.appendChild(node);
	}
        <!-- 行人朝向指示-->
      function setPointer(angle,x,y){
            var p= document.getElementById("pnow");
            p.setAttribute("x",x)
            p.setAttribute("y",y)
            var l5= document.getElementById("L71");
            p.setAttribute("transform","rotate("+angle+" "+accAdd(x,60)+" "+accAdd(y,60)+")");
          
	}


      <!-- 行走方向指示（大箭头）-->
      function drawDirection(myPath){
	    var l6= document.getElementById("L6");
            var pathold= document.getElementById("path");
            if(pathold){
                l6.removeChild(pathold);  
            }
            var node=document.createElementNS("http://www.w3.org/2000/svg","path");
            node.setAttribute("id","path");
	    node.setAttribute("fill","none");
	    node.setAttribute("stroke","green");
            node.setAttribute("stroke-miterlimit","10");
	    node.setAttribute("stroke-width","30");
	    node.setAttribute("d",myPath);
            node.setAttribute("marker-end","url(#arrow)");
 	    l6.appendChild(node);
	}
      <!-- 目的地指示 --> 
      function setAim(x,y){
            var  dest = document.get
	    var l7= document.getElementById("L7");
            l7.setAttribute("transform","translate("+x+" "+y+")")
	}

      <!-- 扫码定位指示 --> 
      function setScanResult(x,y){
	    var l8= document.getElementById("L8");
            l8.setAttribute("transform","translate("+x+" "+y+")")
	}
      <!-- 缩放元素 --> 
      function scalePic(sX,sY){
	    var l5= document.getElementById("L5");
            l8.setAttribute("transform","translate("+x+" "+y+")")
	}

</script>
</svg>
